<?xml version="1.0" encoding="utf-8"?>
<!-- Generated by IcoMoon.io -->
<!DOCTYPE svg PUBLIC "-//W3C//DTD SVG 1.1//EN" "http://www.w3.org/Graphics/SVG/1.1/DTD/svg11.dtd">
<svg version="1.1" xmlns="http://www.w3.org/2000/svg" xmlns:xlink="http://www.w3.org/1999/xlink" width="27" height="29" viewBox="0 0 512 512">
<g>
</g>
	<path d="M64 464c0-26.51 21.49-48 48-48s48 21.49 48 48c0 26.51-21.49 48-48 48-26.51 0-48-21.49-48-48zM384 464c0-26.51 21.49-48 48-48s48 21.49 48 48c0 26.51-21.49 48-48 48-26.51 0-48-21.49-48-48zM480 256v-192h-416c0-35.346-28.653-64-64-64v32c17.645 0 32 14.355 32 32l24.037 206.027c-14.647 11.729-24.037 29.75-24.037 49.973 0 35.347 28.654 64 64 64h384v-32h-384c-17.673 0-32-14.327-32-32 0-0.11 0.007-0.218 0.008-0.328l415.992-63.672z" fill="#3D1101" />
</svg>
