<?xml version="1.0" encoding="utf-8"?>
<!-- Generated by IcoMoon.io -->
<!DOCTYPE svg PUBLIC "-//W3C//DTD SVG 1.1//EN" "http://www.w3.org/Graphics/SVG/1.1/DTD/svg11.dtd">
<svg version="1.1" xmlns="http://www.w3.org/2000/svg" xmlns:xlink="http://www.w3.org/1999/xlink" width="26" height="32" viewBox="0 0 512 512">
<g>

</g>
	<path d="M358.774 0c-84.382 139.493-151.15 70.891-248.795 171.215-86.168 88.533-56.291 195.153 16.262 231.872 71.615-36.594 144.884-118.411 199.225-236.862 0 0 48.833 149.572-100.745 293.687 72.634 85.074 195.914 25.886 230.363-109.459 37.449-147.137-60.194-296.948-96.31-350.453zM48.506 483.121c0.058 1.453 1.711 28.879 37.683 28.879 26.172 0 158.916-72.339 227.133-260.102-103.219 182.607-253.060 227.919-264.816 231.223z" fill="#3d1101"/>
</svg>


